<?xml version="1.0" standalone="no"?>
<!DOCTYPE svg PUBLIC "-//W3C//DTD SVG 20010904//EN"
 "http://www.w3.org/TR/2001/REC-SVG-20010904/DTD/svg10.dtd">
<svg version="1.0" xmlns="http://www.w3.org/2000/svg"
 width="700.000000pt" height="700.000000pt" viewBox="0 0 700.000000 700.000000"
 preserveAspectRatio="xMidYMid meet">
<metadata>
Created by potrace 1.14, written by Peter Selinger 2001-2017
</metadata>
<g transform="translate(0.000000,700.000000) scale(0.100000,-0.100000)"
fill="#000000" stroke="none">
<path d="M6392 6516 c-29 -8 -55 -16 -59 -19 -3 -4 0 -20 7 -37 10 -23 11 -75
7 -203 -4 -95 -8 -183 -11 -197 -2 -14 -7 -56 -11 -95 -4 -38 -8 -83 -10 -100
-2 -16 -7 -52 -10 -80 -3 -27 -7 -61 -10 -75 -6 -36 -13 -87 -20 -150 -4 -30
-8 -57 -10 -60 -1 -3 -6 -34 -10 -70 -4 -36 -10 -83 -15 -105 -5 -22 -11 -65
-15 -95 -8 -65 -56 -210 -116 -347 -42 -97 -45 -100 -209 -264 -91 -91 -199
-195 -240 -230 -41 -35 -77 -67 -80 -70 -3 -3 -52 -43 -110 -88 -58 -45 -116
-91 -130 -102 -33 -27 -396 -269 -403 -269 -3 0 -41 -21 -84 -46 -107 -64
-389 -205 -498 -249 -49 -20 -103 -43 -120 -50 -229 -100 -775 -250 -1018
-280 -26 -3 -69 -10 -95 -14 -26 -5 -74 -12 -107 -16 -33 -3 -73 -8 -90 -10
-165 -21 -763 -28 -975 -12 -94 8 -429 48 -505 62 -16 3 -59 10 -95 16 -36 6
-105 19 -155 29 -49 11 -105 22 -124 25 -19 3 -38 8 -41 10 -4 3 -24 7 -43 10
-19 3 -111 26 -204 51 -92 25 -175 47 -183 49 -30 8 -147 44 -220 68 -63 22
-78 24 -95 13 -11 -7 -75 -43 -143 -81 -67 -37 -125 -72 -128 -77 -3 -5 -7
-75 -10 -156 l-3 -147 45 -68 c54 -81 228 -298 304 -382 148 -161 360 -353
535 -486 75 -58 289 -201 333 -223 17 -9 32 -18 32 -21 0 -2 -57 -4 -127 -4
-71 0 -140 0 -154 -1 -25 0 -95 -65 -229 -209 -36 -40 -37 -27 17 -203 l39
-128 76 -59 c108 -82 270 -191 390 -262 124 -73 384 -203 488 -243 41 -16 93
-37 115 -47 66 -28 342 -114 433 -134 109 -25 262 -56 291 -60 20 -3 46 -7 58
-9 12 -3 53 -8 90 -11 37 -4 70 -9 73 -10 3 -2 59 -7 125 -11 203 -14 576 -8
705 11 14 2 52 6 85 10 33 3 85 10 115 15 30 5 69 12 85 14 181 30 346 71 555
140 385 127 723 304 1049 550 170 128 384 326 501 465 25 30 52 61 61 70 51
52 254 338 303 426 9 17 26 46 38 65 24 41 127 245 156 310 19 42 35 83 81
198 21 53 89 268 96 302 2 13 9 37 14 54 6 17 13 47 16 66 3 19 10 49 15 65
11 38 48 262 55 340 3 33 8 76 11 95 3 19 7 148 9 285 4 222 2 260 -15 340
-57 255 -141 530 -216 698 -53 122 -70 148 -89 141 -8 -4 -15 -1 -15 4 0 6 10
9 23 7 23 -5 23 -3 21 83 -2 100 9 202 31 282 8 30 17 62 19 70 14 52 77 190
122 264 41 69 133 192 187 251 45 48 46 50 30 75 -120 189 -247 297 -391 334
-71 19 -127 19 -200 2z m112 -1367 c3 -2 -12 -5 -34 -5 -21 0 -37 2 -35 6 4 7
62 7 69 -1z"/>
</g>
</svg>
